# xmcd
#
# Track frame offsets: 
#        150
#        31857
#        55329
#        85768
#        116076
#        149913
#        177507
#        215693
#
# Disc length: 3260 seconds
#
# Revision: 5
# Processed by: cddbd v1.5.2PL0 Copyright (c) Steve Scherf et al.
# Submitted via: ExactAudioCopy v1.3
#
DISCID=790cba08
DTITLE=Various Artist - Calle 54 Soundtrack (2 CD edition)
DYEAR=2000
DGENRE=Latin Jazz
TTITLE0=Paquito D'Rivera - Panamericana
TTITLE1=Eliane Elías - Samba Triste
TTITLE2=Chano Domínguez - Oye Como Viene
TTITLE3=Jerry González and The Fort Apache Band - Earth Dance
TTITLE4=Michel Camilo - From Within
TTITLE5=Gato Barbieri - Introduccion, Llamerito Y Tango - Bolivia
TTITLE6=Tito Puente - New Arrival
TTITLE7=Chucho Valdés - Caridad Amaro
EXTD=
EXTT0=
EXTT1=
EXTT2=
EXTT3=
EXTT4=
EXTT5=
EXTT6=
EXTT7=
PLAYORDER=
